<?xml version="1.0" encoding="utf-8"?>
<!-- Generator: Adobe Illustrator 18.0.0, SVG Export Plug-In . SVG Version: 6.00 Build 0)  -->
<!DOCTYPE svg PUBLIC "-//W3C//DTD SVG 1.1//EN" "http://www.w3.org/Graphics/SVG/1.1/DTD/svg11.dtd">
<svg version="1.1" id="Layer_1" xmlns="http://www.w3.org/2000/svg" xmlns:xlink="http://www.w3.org/1999/xlink" x="0px" y="0px"
	 viewBox="0 0 215 215" enable-background="new 0 0 215 215" xml:space="preserve">
<g>
	<g>
		<g>
			<g>
				<defs>
					<circle id="SVGID_1_" cx="108.1" cy="81.6" r="53.1"/>
				</defs>
				<clipPath id="SVGID_2_">
					<use xlink:href="#SVGID_1_"  overflow="visible"/>
				</clipPath>
				<g clip-path="url(#SVGID_2_)">
					<rect x="56" y="28" fill="#F16651" width="10" height="12"/>
					<rect x="56" y="40" fill="#D95C49" width="10" height="9"/>
					<rect x="56" y="49" fill="#F1553C" width="10" height="12"/>
					<rect x="56" y="61" fill="#F16651" width="10" height="10"/>
					<rect x="56" y="71" fill="#F18879" width="10" height="11"/>
					<rect x="56" y="82" fill="#FDC44F" width="10" height="10"/>
					<rect x="56" y="92" fill="#FDCD6A" width="10" height="11"/>
					<rect x="56" y="103" fill="#FDBB33" width="10" height="10"/>
					<rect x="56" y="113" fill="#FDCD6A" width="10" height="11"/>
					<rect x="56" y="124" fill="#FDC44F" width="10" height="10"/>
					<rect x="66" y="28" fill="#F18879" width="11" height="12"/>
					<rect x="66" y="40" fill="#F1553C" width="11" height="9"/>
					<rect x="66" y="49" fill="#F16651" width="11" height="12"/>
					<rect x="66" y="61" fill="#D95C49" width="11" height="10"/>
					<rect x="66" y="71" fill="#F1553C" width="11" height="11"/>
					<rect x="66" y="82" fill="#FDCD6A" width="11" height="10"/>
					<rect x="66" y="92" fill="#FDBB33" width="11" height="11"/>
					<rect x="66" y="103" fill="#D9A744" width="11" height="10"/>
					<rect x="66" y="113" fill="#FDBB33" width="11" height="11"/>
					<rect x="66" y="124" fill="#D9A744" width="11" height="10"/>
					<rect x="77" y="28" fill="#D95C49" width="10" height="12"/>
					<rect x="77" y="40" fill="#F16651" width="10" height="9"/>
					<rect x="77" y="49" fill="#F18879" width="10" height="12"/>
					<rect x="77" y="61" fill="#F1553C" width="10" height="10"/>
					<rect x="77" y="71" fill="#F16651" width="10" height="11"/>
					<rect x="77" y="82" fill="#D9A744" width="10" height="10"/>
					<rect x="77" y="92" fill="#FDC44F" width="10" height="11"/>
					<rect x="77" y="103" fill="#FDBB33" width="10" height="10"/>
					<rect x="77" y="113" fill="#FDC44F" width="10" height="11"/>
					<rect x="77" y="124" fill="#FDCD6A" width="10" height="10"/>
					<rect x="87" y="28" fill="#F16651" width="11" height="12"/>
					<rect x="87" y="40" fill="#F1553C" width="11" height="9"/>
					<rect x="87" y="49" fill="#D95C49" width="11" height="12"/>
					<rect x="87" y="61" fill="#F16651" width="11" height="10"/>
					<rect x="87" y="71" fill="#F18879" width="11" height="11"/>
					<rect x="87" y="82" fill="#FDBB33" width="11" height="10"/>
					<rect x="87" y="92" fill="#FDCD6A" width="11" height="11"/>
					<rect x="87" y="103" fill="#FDC44F" width="11" height="10"/>
					<rect x="87" y="113" fill="#D9A744" width="11" height="11"/>
					<rect x="87" y="124" fill="#FDBB33" width="11" height="10"/>
					<rect x="98" y="28" fill="#F1553C" width="10" height="12"/>
					<rect x="98" y="40" fill="#F16651" width="10" height="9"/>
					<rect x="98" y="49" fill="#F18879" width="10" height="12"/>
					<rect x="98" y="61" fill="#D95C49" width="10" height="10"/>
					<rect x="98" y="71" fill="#F1553C" width="10" height="11"/>
					<rect x="98" y="82" fill="#67B396" width="10" height="10"/>
					<rect x="98" y="92" fill="#92D1B9" width="10" height="11"/>
					<rect x="98" y="103" fill="#79D1B0" width="10" height="10"/>
					<rect x="98" y="113" fill="#92D1B9" width="10" height="11"/>
					<rect x="98" y="124" fill="#54D1A2" width="10" height="10"/>
					<rect x="108" y="28" fill="#F18879" width="11" height="12"/>
					<rect x="108" y="40" fill="#D95C49" width="11" height="9"/>
					<rect x="108" y="49" fill="#F16651" width="11" height="12"/>
					<rect x="108" y="61" fill="#F1553C" width="11" height="10"/>
					<rect x="108" y="71" fill="#F16651" width="11" height="11"/>
					<rect x="108" y="82" fill="#79D1B0" width="11" height="10"/>
					<rect x="108" y="92" fill="#54D1A2" width="11" height="11"/>
					<rect x="108" y="103" fill="#92D1B9" width="11" height="10"/>
					<rect x="108" y="113" fill="#67B396" width="11" height="11"/>
					<rect x="108" y="124" fill="#79D1B0" width="11" height="10"/>
					<rect x="119" y="28" fill="#C8D982" width="10" height="12"/>
					<rect x="119" y="40" fill="#C1C8A0" width="10" height="9"/>
					<rect x="119" y="49" fill="#B9C878" width="10" height="12"/>
					<rect x="119" y="61" fill="#B1C850" width="10" height="10"/>
					<rect x="119" y="71" fill="#C8D982" width="10" height="11"/>
					<rect x="119" y="82" fill="#92D1B9" width="10" height="10"/>
					<rect x="119" y="92" fill="#67B396" width="10" height="11"/>
					<rect x="119" y="103" fill="#79D1B0" width="10" height="10"/>
					<rect x="119" y="113" fill="#54D1A2" width="10" height="11"/>
					<rect x="119" y="124" fill="#92D1B9" width="10" height="10"/>
					<rect x="129" y="28" fill="#B1C850" width="12" height="12"/>
					<rect x="129" y="40" fill="#B9C878" width="12" height="9"/>
					<rect x="129" y="49" fill="#C8D982" width="12" height="12"/>
					<rect x="129" y="61" fill="#C1C8A0" width="12" height="10"/>
					<rect x="129" y="71" fill="#B9C878" width="12" height="11"/>
					<rect x="129" y="82" fill="#54D1A2" width="12" height="10"/>
					<rect x="129" y="92" fill="#79D1B0" width="12" height="11"/>
					<rect x="129" y="103" fill="#67B396" width="12" height="10"/>
					<rect x="129" y="113" fill="#79D1B0" width="12" height="11"/>
					<rect x="129" y="124" fill="#67B396" width="12" height="10"/>
					<rect x="141" y="28" fill="#C1C8A0" width="9" height="12"/>
					<rect x="141" y="40" fill="#C8D982" width="9" height="9"/>
					<rect x="141" y="49" fill="#B1C850" width="9" height="12"/>
					<rect x="141" y="61" fill="#B9C878" width="9" height="10"/>
					<rect x="141" y="71" fill="#C1C8A0" width="9" height="11"/>
					<rect x="141" y="82" fill="#67B396" width="9" height="10"/>
					<rect x="141" y="92" fill="#92D1B9" width="9" height="11"/>
					<rect x="141" y="103" fill="#54D1A2" width="9" height="10"/>
					<rect x="141" y="113" fill="#92D1B9" width="9" height="11"/>
					<rect x="141" y="124" fill="#54D1A2" width="9" height="10"/>
					<rect x="150" y="28" fill="#B9C878" width="12" height="12"/>
					<rect x="150" y="40" fill="#B1C850" width="12" height="9"/>
					<rect x="150" y="49" fill="#C1C8A0" width="12" height="12"/>
					<rect x="150" y="61" fill="#C8D982" width="12" height="10"/>
					<rect x="150" y="71" fill="#B1C850" width="12" height="11"/>
					<rect x="150" y="82" fill="#79D1B0" width="12" height="10"/>
					<rect x="150" y="92" fill="#54D1A2" width="12" height="11"/>
					<rect x="150" y="103" fill="#92D1B9" width="12" height="10"/>
					<rect x="150" y="113" fill="#67B396" width="12" height="11"/>
					<rect x="150" y="124" fill="#79D1B0" width="12" height="10"/>
					<rect x="54" y="71" fill="#F18879" width="12" height="11"/>
					<rect x="54" y="82" fill="#FDC44F" width="12" height="10"/>
					<rect x="98" y="134" fill="#79D1B0" width="10" height="12"/>
					<rect x="108" y="134" fill="#92D1B9" width="11" height="12"/>
				</g>
			</g>
		</g>
		<g>
			<path d="M12.6,150h2.9v4.8c0.8-1.7,2-3.1,3.7-4.1c1.7-1,3.7-1.5,6-1.5c2.1,0,4,0.5,5.9,1.6c1.8,1,3.2,2.6,4.2,4.7
				c2.3-4.2,5.9-6.3,10.8-6.3c3,0,5.6,0.9,7.7,2.8c2.2,1.9,3.2,4.7,3.2,8.4v20.7h-2.9V161c0-3.1-0.7-5.4-2.2-6.9
				c-1.5-1.5-3.4-2.3-5.8-2.3c-3.1,0-5.5,0.9-7.2,2.6c-1.7,1.8-2.6,4.2-2.6,7.4v19.2h-2.9v-20.1c0-3.1-0.7-5.4-2.2-6.9
				c-1.4-1.5-3.4-2.3-6-2.3c-3,0-5.4,0.9-7.1,2.7c-1.7,1.8-2.6,4.4-2.6,7.7v18.9h-2.9V150z"/>
			<path d="M80,182c-2.2,0-4.3-0.4-6.3-1.3c-2-0.8-3.7-2-5.1-3.5c-1.4-1.5-2.6-3.2-3.4-5.2c-0.8-2-1.3-4.1-1.3-6.4
				c0-2.3,0.4-4.4,1.3-6.4c0.8-2,2-3.7,3.4-5.2c1.4-1.5,3.1-2.6,5.1-3.5c2-0.8,4-1.3,6.3-1.3c2.2,0,4.3,0.4,6.3,1.3
				c2,0.8,3.7,2,5.1,3.5c1.4,1.5,2.6,3.2,3.4,5.2c0.8,2,1.3,4.1,1.3,6.4c0,2.3-0.4,4.4-1.3,6.4c-0.8,2-2,3.7-3.4,5.2
				c-1.4,1.5-3.1,2.6-5.1,3.5C84.3,181.5,82.2,182,80,182z M80,179.3c1.9,0,3.7-0.4,5.3-1.1c1.6-0.7,3-1.7,4.1-2.9
				c1.2-1.2,2.1-2.6,2.7-4.3c0.7-1.7,1-3.5,1-5.4c0-1.9-0.3-3.8-1-5.4c-0.7-1.7-1.6-3.1-2.7-4.3c-1.2-1.2-2.5-2.2-4.1-2.9
				c-1.6-0.7-3.4-1.1-5.3-1.1c-1.9,0-3.7,0.4-5.3,1.1c-1.6,0.7-3,1.7-4.1,2.9c-1.2,1.2-2.1,2.6-2.7,4.3c-0.7,1.7-1,3.5-1,5.4
				c0,1.9,0.3,3.8,1,5.4c0.7,1.7,1.6,3.1,2.7,4.3c1.2,1.2,2.5,2.2,4.1,2.9C76.3,178.9,78.1,179.3,80,179.3z"/>
			<path d="M112.9,182c-3.4,0-6.1-0.7-8.2-2.2c-2.1-1.5-3.6-3.3-4.7-5.6l2.5-1.1c0.8,2,2.2,3.5,3.9,4.6c1.8,1.1,3.9,1.7,6.4,1.7
				c2.3,0,4.2-0.5,5.6-1.6c1.5-1.1,2.2-2.6,2.2-4.4c0-2-0.8-3.5-2.4-4.5c-1.6-1-3.8-2-6.7-2.9c-1.5-0.5-2.8-0.9-4-1.5
				c-1.1-0.5-2.1-1.1-3-1.8c-0.8-0.7-1.5-1.5-1.9-2.4c-0.4-0.9-0.6-2-0.6-3.3c0-2.3,0.8-4.1,2.5-5.5c1.7-1.4,3.9-2.1,6.7-2.1
				c2.5,0,4.5,0.5,6.1,1.5c1.6,1,2.8,2.4,3.7,4.1l-2.4,1.3c-0.7-1.3-1.6-2.3-2.8-3.1c-1.1-0.7-2.6-1.1-4.5-1.1
				c-1.9,0-3.4,0.5-4.6,1.4c-1.2,0.9-1.8,2.2-1.8,3.7c0,1.9,0.7,3.2,2,4c1.3,0.8,3.1,1.5,5.3,2.2c1.6,0.5,3,1.1,4.4,1.6
				c1.4,0.6,2.5,1.2,3.6,2c1,0.7,1.8,1.6,2.4,2.7c0.6,1,0.9,2.3,0.9,3.8c0,2.8-1,4.9-3,6.4C118.6,181.2,116.1,182,112.9,182z"/>
			<path d="M151.7,161.3c0-3.4-0.8-5.8-2.3-7.3c-1.5-1.4-3.7-2.2-6.4-2.2c-2.3,0-4.2,0.4-5.8,1.3c-1.6,0.8-2.9,2.2-4.1,4.1l-2.2-1.5
				c2.9-4.4,6.9-6.6,12.1-6.6c3.5,0,6.4,1,8.5,2.9c2.1,1.9,3.2,4.9,3.2,9.1v20h-2.9v-4.1c-1,1.4-2.5,2.6-4.3,3.5
				c-1.8,0.9-3.9,1.4-6.4,1.4c-3.4,0-6.3-0.8-8.6-2.5c-2.4-1.7-3.5-4.2-3.5-7.4c0-1.6,0.3-3.1,1-4.3c0.7-1.2,1.5-2.2,2.7-3
				c1.1-0.8,2.5-1.4,3.9-1.7c1.5-0.4,3-0.5,4.7-0.5h10.6V161.3z M141.5,165.1c-1.3,0-2.5,0.1-3.7,0.3c-1.1,0.2-2.2,0.6-3.1,1.2
				c-0.9,0.6-1.6,1.3-2.2,2.2c-0.5,0.9-0.8,2-0.8,3.3c0,2.5,0.9,4.4,2.7,5.5c1.8,1.1,4.1,1.7,6.9,1.7c1.2,0,2.5-0.2,3.7-0.5
				c1.2-0.3,2.4-0.8,3.3-1.6c1-0.7,1.8-1.6,2.4-2.6c0.6-1,0.9-2.3,0.9-3.8v-5.7H141.5z"/>
			<path d="M165.9,141c-0.7,0-1.2-0.2-1.7-0.7c-0.5-0.5-0.7-1-0.7-1.8c0-0.7,0.2-1.3,0.7-1.8c0.5-0.5,1.1-0.7,1.7-0.7
				c0.7,0,1.2,0.2,1.7,0.7c0.5,0.5,0.7,1,0.7,1.8c0,0.7-0.2,1.3-0.7,1.8C167.2,140.8,166.6,141,165.9,141z M164.5,150h2.9v31.2h-2.9
				V150z"/>
			<path d="M190.6,182c-2.2,0-4.3-0.4-6.2-1.3c-1.9-0.8-3.5-2-4.9-3.5c-1.4-1.5-2.5-3.2-3.3-5.2c-0.8-2-1.2-4.1-1.2-6.4
				c0-2.3,0.4-4.4,1.2-6.4c0.8-2,1.9-3.7,3.3-5.2c1.4-1.5,3.1-2.6,5-3.5c1.9-0.8,4-1.3,6.2-1.3c4.8,0,8.7,1.6,11.7,4.8l-2.1,1.8
				c-2.4-2.6-5.6-3.9-9.6-3.9c-1.9,0-3.6,0.4-5.2,1.1c-1.6,0.7-2.9,1.7-4,2.9c-1.1,1.2-2,2.6-2.6,4.3c-0.6,1.7-0.9,3.5-0.9,5.4
				c0,1.9,0.3,3.8,0.9,5.4c0.6,1.7,1.5,3.1,2.6,4.3c1.1,1.2,2.4,2.2,4,2.9c1.5,0.7,3.2,1.1,5.1,1.1c2.3,0,4.3-0.4,6.2-1.2
				c1.8-0.8,3.3-1.9,4.5-3.3l2.1,1.8c-1.5,1.8-3.3,3.1-5.5,4C195.7,181.5,193.3,182,190.6,182z"/>
		</g>
	</g>
</g>
</svg>
