<svg id="Layer_1" data-name="Layer 1" xmlns="http://www.w3.org/2000/svg" viewBox="0 0 275.91 130.93"><defs><style>.cls-1{font-size:45.84px;}.cls-1,.cls-2,.cls-7{font-family:Montserrat-Bold, Montserrat;font-weight:700;}.cls-2,.cls-7{font-size:13.1px;}.cls-2{letter-spacing:0.43em;}.cls-10,.cls-3,.cls-5{fill:none;}.cls-3,.cls-4,.cls-5{stroke:#020202;}.cls-10,.cls-3,.cls-4,.cls-6,.cls-9{stroke-linecap:round;stroke-linejoin:round;}.cls-3,.cls-4{stroke-width:1.4px;}.cls-4{fill:#575757;}.cls-5{stroke-miterlimit:10;}.cls-6{fill:#fff;}.cls-10,.cls-6,.cls-9{stroke:#000;stroke-width:0.87px;}.cls-7{letter-spacing:0.43em;}.cls-8{letter-spacing:0.43em;}</style></defs><title>angularcamp_barcelona_2017</title><text class="cls-1" transform="translate(21.11 95.9)">ANGULAR</text><text class="cls-2" transform="translate(79.97 23.56)"><tspan xml:space="preserve">20       17</tspan></text><polygon class="cls-3" points="137.96 27.66 125.97 27.66 131.97 16 137.96 4.34 149.94 27.66 137.96 27.66"/><line class="cls-4" x1="136.08" y1="0.7" x2="137.96" y2="4.34"/><line class="cls-4" x1="139.83" y1="0.7" x2="137.96" y2="4.34"/><polygon class="cls-5" points="137.96 24.51 132.19 24.51 135.07 18.9 137.96 13.29 143.72 24.51 137.96 24.51"/><line class="cls-6" x1="50.51" y1="40.59" x2="225.4" y2="40.59"/><text class="cls-7" transform="translate(109.19 127.65)">C<tspan class="cls-8" x="15.15" y="0">AMP</tspan></text><line class="cls-9" x1="0.44" y1="119.17" x2="86.89" y2="119.17"/><line class="cls-10" x1="189.02" y1="119.17" x2="275.48" y2="119.17"/><line class="cls-10" x1="189.02" y1="121.79" x2="254.52" y2="121.79"/><line class="cls-9" x1="21.39" y1="121.79" x2="86.89" y2="121.79"/></svg>