<svg id="Layer_1" data-name="Layer 1" xmlns="http://www.w3.org/2000/svg" viewBox="0 0 245.94 52.42"><defs><style>.cls-1{fill:#137cc1;}.cls-2{fill:#4d4d4f;}</style></defs><title>drupalizeme</title><path class="cls-1" d="M257.76,64c0-.63-.45-1-1.08-1-1.69,0-2.62,1.65-2.93,3C254.93,66.1,257.76,65.79,257.76,64Z" transform="translate(-24.32 -37.55)"/><path class="cls-1" d="M258.74,46.92a35.34,35.34,0,0,1-10.21-8.73s-.41-.63-.87-.63-.84.63-.84.63A35.65,35.65,0,0,1,236.51,47C229.93,50.9,225,57.62,225,65.86a22.61,22.61,0,0,0,45.23,0C270.26,57.6,265.35,50.87,258.74,46.92ZM250,65l-1.22,6.87h-2.42l1.14-6.45a4.61,4.61,0,0,0,.1-.87c0-.77-.24-1.34-1.16-1.34a2.45,2.45,0,0,0-2.3,2.07L243,71.87h-2.42l1.14-6.45a4.64,4.64,0,0,0,.1-.89c0-.73-.2-1.32-1.18-1.32a2.44,2.44,0,0,0-2.3,2.11l-1.14,6.55h-2.42l1.48-8.46.14-1.77h2l0,1.26a4.25,4.25,0,0,1,3.25-1.57A2.32,2.32,0,0,1,244.16,63a4,4,0,0,1,3.27-1.63c1.73,0,2.69.85,2.69,2.56A7.12,7.12,0,0,1,250,65Zm5.6,5.31a4.85,4.85,0,0,0,2.62-.9L259,71A6.8,6.8,0,0,1,255,72.18c-2.79,0-3.94-1.73-3.94-4.09,0-3.52,2.26-6.75,6-6.75,1.85,0,2.93,1,2.93,2.38,0,3.56-4.27,4-6.45,4C253.43,69,253.9,70.31,255.62,70.31Z" transform="translate(-24.32 -37.55)"/><path class="cls-2" d="M41,52.55V42.68h6.17v31.2L47.68,79H42.35l-.42-2.82-.21-.05a8.36,8.36,0,0,1-7.11,3.66c-8.15,0-10.3-6.38-10.3-12.91,0-8.94,4.6-14.95,12.65-14.95A13.11,13.11,0,0,1,41,52.55Zm0,4.76a9.71,9.71,0,0,0-3.92-.84c-5,0-6.64,4.7-6.64,9.82,0,4.76,1.15,8.89,5.38,8.89,3.19,0,5.17-2.3,5.17-4.34Z" transform="translate(-24.32 -37.55)"/><path class="cls-2" d="M58.76,79H52.54V56.94l-.47-4.23H57.2l.63,3.82a6.83,6.83,0,0,1,6.32-4.6,8.27,8.27,0,0,1,4.18,1l-1.1,5.28a7.62,7.62,0,0,0-3.71-1c-2.82,0-4.65,2.25-4.76,5.28Z" transform="translate(-24.32 -37.55)"/><path class="cls-2" d="M91.9,52.71v21.9L92.32,79H87l-.37-3.08h-.21a8.88,8.88,0,0,1-7.58,3.81c-5.75,0-8.62-3-8.62-9.2V52.71h6.22V69.38c0,3.19.57,5.54,4.08,5.54a5.3,5.3,0,0,0,5.17-5V52.71Z" transform="translate(-24.32 -37.55)"/><path class="cls-2" d="M102.95,90H96.73V53.65a37.91,37.91,0,0,1,10.45-1.72c8.36,0,12.28,4.65,12.28,13.69,0,9.2-4.23,14.16-11.08,14.16a10.9,10.9,0,0,1-5.44-1.52ZM106,56.89a13.34,13.34,0,0,0-3.08.37v16.1a8.53,8.53,0,0,0,4.44,1.31c4.44,0,5.8-4.39,5.8-8.57C113.19,60,110.84,56.89,106,56.89Z" transform="translate(-24.32 -37.55)"/><path class="cls-2" d="M145.17,74l.47,5h-5.38l-.37-2.77-.21-.05a8.45,8.45,0,0,1-7.16,3.5c-7.37,0-10.24-5.23-10.24-12.7,0-9.2,4.6-15.05,13.59-15.05a29.43,29.43,0,0,1,9.3,1.83ZM139,57.15a10.37,10.37,0,0,0-3.92-.68c-5,0-6.64,4.65-6.64,10.3,0,4.34,1,8.47,5.44,8.47,3.24,0,5.12-2.3,5.12-4.55Z" transform="translate(-24.32 -37.55)"/><path class="cls-2" d="M168.15,41.68a3.46,3.46,0,0,1,3.6,3.5,3.42,3.42,0,0,1-3.6,3.45,3.36,3.36,0,0,1-3.61-3.45A3.46,3.46,0,0,1,168.15,41.68ZM165.07,79V52.71h6.22V79Z" transform="translate(-24.32 -37.55)"/><path class="cls-2" d="M194.69,74.12H182.17V74c1.35-1.4,4.94-6.15,6.24-7.72l7.83-9.54v-4H175.92v4.88h12.44v.11c-1.4,1.51-2.76,3.22-4.11,4.84l-9.88,12.63V79h23.81A9.88,9.88,0,0,1,194.69,74.12Z" transform="translate(-24.32 -37.55)"/><path class="cls-2" d="M162.55,74a8.75,8.75,0,0,1-3.29.84c-2.14,0-2.82-1.2-2.82-4.44V42.73h-6.22v29c0,3.92.42,8,7.48,8a14.18,14.18,0,0,0,4.86-.91Z" transform="translate(-24.32 -37.55)"/><path class="cls-2" d="M216.16,72.91l-.11-.18a11.26,11.26,0,0,1-6.58,2.3c-4.44,0-6.37-3.29-6.58-6.69,4.81-.05,14.79-1.1,14.79-9.15,0-4.65-3.19-7.26-8.31-7.26-8.31,0-12.75,6.79-12.75,14.48,0,7.84,3.55,13.38,12.18,13.38a15.17,15.17,0,0,0,9.47-3.14A22.41,22.41,0,0,1,216.16,72.91ZM209,56.37a2.9,2.9,0,0,1,3.14,3.08c0,4-6.64,4.91-9.46,4.86C202.83,60.44,204.82,56.37,209,56.37Z" transform="translate(-24.32 -37.55)"/></svg>