<?xml version="1.0" encoding="utf-8"?>
<!-- Generator: Adobe Illustrator 21.0.2, SVG Export Plug-In . SVG Version: 6.00 Build 0)  -->
<svg version="1.1" id="Capa_1" xmlns="http://www.w3.org/2000/svg" xmlns:xlink="http://www.w3.org/1999/xlink" x="0px" y="0px"
	 viewBox="0 0 539 185" style="enable-background:new 0 0 539 185;" xml:space="preserve">
<style type="text/css">
	.st0{fill:#8C1414;}
	.st1{fill:#BE2832;}
	.st2{fill:#FF193C;}
	.st3{fill:#7E2221;}
</style>
<g>
	<path class="st0" d="M133.7,67.2v5.3v2c0,5.4-1,11.4-4.9,15c-1.9,1.9-4.5,3.3-8.2,3.3c-1.6,0-3-0.2-4.2-0.5c-1.6-0.4-3-1.2-4-2.2
		v17.2c1.2,0.2,2.5,0.3,3.8,0.3c0.1,0,0.2,0,0.3,0c8.4-0.1,15.7-3.9,18.9-10.4l1.2,8.7h13.3V72.4v-5.3H133.7z"/>
	<path class="st1" d="M321.9,67.2c0.2,1.7,0.3,3.5,0.3,5.2c0,6.3-0.9,12.6-4.7,16.8c-2.2,2.3-5.8,4.2-10.1,4.2
		c-4.4,0-8-1.9-10.1-4.2c-3.8-4.2-4.7-10.5-4.7-16.8c0-1.8,0.1-3.5,0.3-5.2h-16.3c-0.1,1.6-0.2,3.4-0.2,5.2
		c0,11.3,2.8,18.3,7.8,24.6c4.6,5.6,13.2,10.4,23.3,10.4c10.1,0,18.7-4.7,23.3-10.4c5-6.3,7.8-13.3,7.8-24.6c0-1.9-0.1-3.6-0.2-5.2
		H321.9z"/>
	<g>
		<path class="st2" d="M297.2,55.6c2.2-2.3,5.8-4.2,10.1-4.2c4.4,0,8,1.9,10.1,4.2c3.8,4.2,4.7,10.5,4.7,16.8h16.3
			c0-11.3-2.8-18.3-7.8-24.6c-4.6-5.6-13.2-10.4-23.3-10.4c-10.1,0-18.7,4.7-23.3,10.4c-5,6.3-7.8,13.3-7.8,24.6h16.3
			C292.5,66.2,293.4,59.9,297.2,55.6z"/>
	</g>
	<g>
		<path class="st2" d="M393.4,67.2c0.2,1.7,0.3,3.5,0.3,5.2c0,6.3-0.9,12.6-4.7,16.8c-2.2,2.3-5.8,4.2-10.1,4.2
			c-4.4,0-8-1.9-10.1-4.2c-3.8-4.2-4.7-10.5-4.7-16.8c0-1.8,0.1-3.5,0.3-5.2h-16.3c-0.2,1.6-0.2,3.4-0.2,5.2
			c0,11.3,2.8,18.3,7.8,24.6c4.6,5.6,13.2,10.4,23.3,10.4c10.1,0,18.7-4.7,23.3-10.4c5-6.3,7.8-13.3,7.8-24.6c0-1.9-0.1-3.6-0.2-5.2
			H393.4z"/>
		<g>
			<path class="st1" d="M368.6,55.6c2.2-2.3,5.8-4.2,10.1-4.2s8,1.9,10.1,4.2c3.8,4.2,4.7,10.5,4.7,16.8h16.3
				c0-11.3-2.8-18.3-7.8-24.6c-4.6-5.6-13.2-10.4-23.3-10.4c-10.1,0-18.7,4.7-23.3,10.4c-5,6.3-7.8,13.3-7.8,24.6h16.3
				C363.9,66.2,364.8,59.9,368.6,55.6z"/>
		</g>
	</g>
	<g>
		<path class="st2" d="M35.2,152.7c-2,2.1-5.1,3.3-8.6,3.3H14.8v-30.6h11.9c3.5,0,6.6,1.2,8.6,3.3c3.1,3.2,3.6,7.8,3.6,12
			C38.8,144.8,38.4,149.4,35.2,152.7z M31,132.1c-1-1-2.5-1.7-4.3-1.7h-6.3v20.6h6.3c1.8,0,3.3-0.7,4.3-1.7c2.2-2.2,2.2-5.8,2.2-8.6
			C33.2,137.8,33.1,134.2,31,132.1z"/>
		<path class="st2" d="M44,130.4v-5.6h5.8v5.6H44z M44.1,155.9v-22.4h5.5v22.4H44.1z"/>
		<path class="st2" d="M65.3,166.4c-2.7,0-5.6-0.2-7.9-1.9c-1.7-1.2-2.7-2.8-2.7-4.9c0-1.9,0.9-3.7,2.7-4.6
			c-1.4-0.8-2.2-2.4-2.2-3.8c0-1.9,0.9-3.4,2.7-4.5c-1.4-1.4-2.2-3.2-2.2-5.5c0-5.3,4.1-8.2,9.2-8.2c1.9,0,3.6,0.5,5.1,1.4
			c0.9-1.9,2.7-2.8,4.6-2.8c0.3,0,1.1,0,1.5,0.1v4.2c-0.1,0-0.3,0-0.4,0c-1.3,0-2.4,0.3-2.7,1.4c0.7,1.2,1.2,2.5,1.2,4.1
			c0,5.1-4.3,8.1-9.1,8.1c-1.2,0-2.5-0.2-3.6-0.6c-0.5,0.3-1.1,0.9-1.1,1.6c0,1.3,1.3,1.6,2.5,1.6h3.7c2.2,0,5.2,0,7.3,1.5
			c1.9,1.3,2.7,3.2,2.7,5.4C76.1,164.8,70.3,166.4,65.3,166.4z M65.7,156.3h-4.2c-1.2,0.3-2,1.3-2,2.8c0,2.8,3.5,3.1,5.6,3.1
			c2.2,0,5.9-0.1,5.9-3.1C71,156.3,67.7,156.3,65.7,156.3z M64.7,137c-2.5,0-4,1.8-4,4.2s1.5,4.1,4,4.1c2.5,0,4-1.7,4-4.1
			C68.7,138.8,67.2,137,64.7,137z"/>
		<path class="st2" d="M80.1,130.4v-5.6h5.8v5.6H80.1z M80.2,155.9v-22.4h5.5v22.4H80.2z"/>
		<path class="st2" d="M100.5,156.2c-4.5,0-6.8-2.6-6.8-6.9v-11.4h-4.1v-4.4h4.1v-5.7l5.4-1.3v7h5.6v4.4h-5.6v10.9
			c0,1.7,0.8,2.5,2.5,2.5c1.1,0,2,0,3.5-0.2v4.5C103.6,156,102.1,156.2,100.5,156.2z"/>
		<path class="st2" d="M127.4,156.3c-2.3,0-3.6-1.5-3.8-3.1c-1,1.8-3.6,3.4-6.8,3.4c-5.3,0-8.1-3.4-8.1-7c0-4.3,3.3-6.7,7.6-7
			l6.6-0.5v-1.4c0-2.1-0.7-3.5-3.8-3.5c-2.5,0-4,1.1-4.1,3.2h-5.2c0.3-5,4.3-7.3,9.3-7.3c3.8,0,7.1,1.2,8.4,4.6
			c0.6,1.4,0.6,3,0.6,4.5v8.3c0,1,0.3,1.4,1.2,1.4c0.3,0,0.7-0.1,0.7-0.1v4C129.2,156.1,128.7,156.3,127.4,156.3z M122.9,146
			l-5.7,0.4c-1.6,0.1-3.2,1.1-3.2,2.9c0,1.7,1.5,2.8,3.2,2.8c3.4,0,5.7-1.8,5.7-5.1L122.9,146L122.9,146L122.9,146z"/>
		<path class="st2" d="M139.9,156.2c-3.7,0-6.1-1.8-6.1-6v-25.4h5.4v24.5c0,1.3,0.3,2.2,2.2,2.2c0.5,0,0.6,0,0.9,0v4.5
			C141.2,156.1,141,156.2,139.9,156.2z"/>
		<path class="st2" d="M174.1,152.9c-1.6,1.9-4.3,3.5-7.7,3.5c-3.4,0-6.3-1.6-7.8-3.5c-1.7-2.1-2.5-4.9-2.5-8.2
			c0-3.3,0.8-6.1,2.5-8.2c1.6-1.9,4.4-3.5,7.8-3.5c3.4,0,6.1,1.6,7.7,3.5c1,1.3,1.6,3.1,1.7,4.9h-5.3c0-0.8-0.3-1.5-0.6-2.1
			c-0.6-1-1.8-1.7-3.4-1.7c-1.5,0-2.5,0.6-3.3,1.4c-1.3,1.4-1.5,3.6-1.5,5.7s0.2,4.2,1.5,5.6c0.7,0.8,1.8,1.4,3.3,1.4
			c1.6,0,2.8-0.7,3.4-1.7c0.3-0.6,0.6-1.2,0.6-2.1h5.3C175.7,149.8,175.1,151.5,174.1,152.9z"/>
		<path class="st2" d="M191.8,138.3c-3.8,0-5.8,2.7-5.8,6.3v11.3h-5.4v-22.4h4.6l0.5,3.4c1-2.6,3.7-3.7,6.3-3.7c0.6,0,1.1,0,1.7,0.1
			v5.2C193.1,138.4,192.4,138.3,191.8,138.3z"/>
		<path class="st2" d="M214.1,156.3c-2.3,0-3.6-1.5-3.8-3.1c-1,1.8-3.6,3.4-6.8,3.4c-5.3,0-8.1-3.4-8.1-7c0-4.3,3.3-6.7,7.6-7
			l6.6-0.5v-1.4c0-2.1-0.7-3.5-3.8-3.5c-2.5,0-4,1.1-4.1,3.2h-5.2c0.3-5,4.3-7.3,9.3-7.3c3.8,0,7.1,1.2,8.4,4.6
			c0.6,1.4,0.6,3,0.6,4.5v8.3c0,1,0.3,1.4,1.2,1.4c0.3,0,0.7-0.1,0.7-0.1v4C215.8,156.1,215.4,156.3,214.1,156.3z M209.5,146
			l-5.7,0.4c-1.6,0.1-3.2,1.1-3.2,2.9c0,1.7,1.5,2.8,3.2,2.8c3.4,0,5.7-1.8,5.7-5.1V146z"/>
		<path class="st2" d="M245.2,151.3c-1.7,0-2.5-0.7-2.5-2.5v-10.9h5.6v-4.4h-5.6v-7l-5.4,1.3v5.7h-9.4v-2.1c0-1.6,1-2.7,2.9-2.7
			c1.4,0,2.4,0.1,3.5,0.3v-4.3c-1.7-0.3-2.7-0.5-4.2-0.5c-4.8,0-7.6,2.9-7.6,7.1v2.2h-3.8v4.4h3.8v18h5.4v-18h9.4v11.4
			c0,4.3,2.2,6.9,6.8,6.9c1.6,0,3.1-0.2,4.6-0.6v-4.5C247.3,151.3,246.4,151.3,245.2,151.3z"/>
		<path class="st2" d="M268.8,153.9c-1.8,1.8-4.6,2.6-7.7,2.6c-2.8,0-5.4-0.8-7.2-2.6c-1.3-1.2-2.4-3.1-2.4-5.2h5
			c0,1,0.5,2.1,1.2,2.6c0.9,0.7,1.9,1,3.4,1c1.8,0,4.6-0.4,4.6-2.8c0-1.3-0.9-2.2-2.2-2.4c-2-0.3-4.2-0.4-6.2-0.9
			c-3.1-0.6-5.1-3.1-5.1-6c0-2.3,0.9-3.9,2.3-5c1.6-1.4,4-2.2,6.8-2.2c2.7,0,5.4,0.9,7,2.6c1.2,1.3,2,3,2,4.6h-5.1
			c0-0.9-0.4-1.6-0.9-2.1c-0.6-0.6-1.8-1-2.9-1c-0.8,0-1.5,0-2.3,0.3c-0.9,0.4-1.7,1.2-1.7,2.4c0,1.6,1.4,2.1,2.6,2.2
			c2,0.3,2.6,0.3,4.8,0.6c3.5,0.6,6.1,2.8,6.1,6.3C270.7,151.1,269.9,152.7,268.8,153.9z"/>
	</g>
	<g>
		<path class="st2" d="M116.4,107.5c-0.1,0-0.2,0-0.3,0c-14.2,0-23.1-9.6-23.1-23.9V39.1h16V80c0,6.3,2,10.7,7.3,12.2L116.4,107.5z"
			/>
		<rect x="133.7" y="39.1" class="st1" width="16" height="33.3"/>
	</g>
	<g>
		<path class="st0" d="M248.1,67.2v38.6h-16.2V67.2H248.1z"/>
		<path class="st2" d="M265.8,38.2c-2.4,0-4.9,0.3-7.2,1c-5.1,1.5-9.5,4.6-11.7,9.9l-1.4-10h-13.6v33.3h16.2v-0.2
			c0-8.4,3.6-15.2,10.5-17.7c2-0.7,4.2-1.1,6.7-1.1c1.8,0,3.7,0.3,5.5,0.6V38.6C269.1,38.4,267.5,38.2,265.8,38.2z"/>
	</g>
	<path class="st2" d="M198.9,37.5c-0.8-0.1-1.7-0.1-2.6-0.1c-0.1,0-0.2,0-0.3,0c-8.4,0.1-15.7,3.9-18.8,10.4l-1.2-8.7h-13.3v66.7h16
		V70.5c0-5.4,1-11.4,4.9-15c1.9-1.9,4.5-3.3,8.2-3.3c1.6,0,3,0.2,4.2,0.5c1.1,0.3,2,0.7,2.8,1.2L198.9,37.5L198.9,37.5z"/>
	<g>
		<rect x="498.9" y="67.2" class="st0" width="15.9" height="38.6"/>
		<rect x="459.6" y="67.2" class="st0" width="15.9" height="38.6"/>
		<path class="st1" d="M454.8,37.5c8.9,0.3,15,4.3,18.2,10.9c4-6.9,11.2-10.9,20.1-10.9c14.2,0,21.7,9.5,21.7,23.3v11.7h-15.9v-8.1
			c0-8.2-2.2-13-10.3-13c-9.1,0-13.1,9.6-13.1,18v3.1h-15.9v-8.1c0-6-1.5-10.6-4.9-11.9L454.8,37.5L454.8,37.5z"/>
		<path class="st2" d="M454.8,52.5c-2.1-0.7-3.2-1-5.4-1c-9.1,0-13.2,9.6-13.2,18v36.4h-15.9V39.1h13.3l1.3,8.8
			c3.7-6.2,10.1-10.5,19-10.5c0.3,0-0.1,0,0.9,0L454.8,52.5L454.8,52.5z"/>
	</g>
	<g>
		<rect x="203.4" y="67.2" class="st3" width="16" height="38.6"/>
		<path class="st1" d="M196.1,37.4c0.1,0,0.2,0,0.3,0c14.2,0,23.1,9.6,23.1,23.9v11.2h-16v-7.6c0-6.3-2-10.7-7.3-12.2L196.1,37.4z"
			/>
	</g>
	<g>
		<polygon class="st0" points="48.5,64.1 66.6,105.8 84.6,105.8 66,64.1 		"/>
		<path class="st1" d="M84.6,43.1c0-14.6-9.9-28.2-31.5-28.2H23.1v14.5h29.9c9.3,0,15,6.4,15,13.7v0.1c0,7.3-5.6,13.7-15,13.7H23.1
			v14.5h29.9c21.6,0,31.5-13.6,31.5-28.2C84.6,43.2,84.6,43.2,84.6,43.1C84.6,43.1,84.6,43.1,84.6,43.1z"/>
		<g>
			<path class="st2" d="M31.5,105.8H14.8V14.9h16.7L31.5,105.8z"/>
		</g>
	</g>
</g>
</svg>
