<?xml version="1.0" encoding="utf-8"?>
<!-- Generator: Adobe Illustrator 18.0.0, SVG Export Plug-In . SVG Version: 6.00 Build 0)  -->
<!DOCTYPE svg PUBLIC "-//W3C//DTD SVG 1.1//EN" "http://www.w3.org/Graphics/SVG/1.1/DTD/svg11.dtd">
<svg version="1.1" id="Capa_1" xmlns="http://www.w3.org/2000/svg" xmlns:xlink="http://www.w3.org/1999/xlink" x="0px" y="0px"
	 viewBox="0 0 144 50" enable-background="new 0 0 144 50" xml:space="preserve">
<g>
	<g>
		<path fill="#28A8E0" d="M32.9,23.3c2.6,6.4,3,12.8,0.2,17.9c-2.7,5.1-8.6,8.8-15.5,8.8C10.6,50.1,4.6,46.3,2,41.2
			c-2.8-5.1-2.4-11.6,0.2-17.9c2.6-6.4,6.4-12,9.1-16.2C14.1,2.9,15.9,0,17.5,0c1.6,0,3.4,2.9,6.3,7.1
			C26.5,11.3,30.3,16.9,32.9,23.3z"/>
	</g>
	<g>
		<path fill="#28A8E0" d="M87.4,23.3c2.6,6.4,3,12.8,0.2,17.9c-2.7,5.1-8.6,8.8-15.5,8.8c-6.9,0.1-12.9-3.7-15.5-8.8
			c-2.8-5.1-2.4-11.6,0.2-17.9c2.6-6.4,6.4-12,9.1-16.2C68.6,2.9,70.4,0,72,0c1.6,0,3.4,2.9,6.3,7.1C81,11.3,84.8,16.9,87.4,23.3z"
			/>
	</g>
	<g>
		<path fill="#CCCCCC" d="M141.9,23.3c2.6,6.4,3,12.8,0.2,17.9c-2.7,5.1-8.6,8.8-15.5,8.8c-6.9,0.1-12.9-3.7-15.5-8.8
			c-2.8-5.1-2.4-11.6,0.2-17.9c2.6-6.4,6.4-12,9.1-16.2c2.9-4.2,4.6-7.1,6.3-7.1c1.6,0,3.4,2.9,6.3,7.1
			C135.5,11.3,139.3,16.9,141.9,23.3z"/>
	</g>
</g>
</svg>
