<svg xmlns="http://www.w3.org/2000/svg" viewBox="0 0 524.1 293.32">
  <defs>
    <style>
      .cls-1{fill:#00a6bc;}.cls-2{fill:#c03d3c;}
    </style>
  </defs>

  <path d="M151.41 225.53a8.68 8.68 0 0 1-.84 3.92 7.67 7.67 0 0 1-2.38 2.81 10.92 10.92 0 0 1-3.72 1.68 19.35 19.35 0 0 1-4.84.56h-12.29v-19.58h5.33l-5.33-7.62v-5.61h12.06a13.91 13.91 0 0 1 4.84.77 11.34 11.34 0 0 1 3.53 2 11.2 11.2 0 0 1 1.68 2.59 7.19 7.19 0 0 1 .61 3v.33a7.19 7.19 0 0 1-.4 2.45 7.77 7.77 0 0 1-1 2 7.63 7.63 0 0 1-1.43 1.5 9.32 9.32 0 0 1-1.64 1.05 14.49 14.49 0 0 1 2.45 1.19 7.4 7.4 0 0 1 1.85 1.59 6.5 6.5 0 0 1 1.15 2.15 9.62 9.62 0 0 1 .4 2.92zm-17.62 2.76H140a6.19 6.19 0 0 0 3.43-.87 3.06 3.06 0 0 0 1.33-2.78v-.28a3.21 3.21 0 0 0-1.26-2.64 6.09 6.09 0 0 0-3.83-1h-5.84zm.23-20.66l5.38 7.52q3.88-.37 3.88-3.65v-.23a3.32 3.32 0 0 0-1.15-2.69 4.93 4.93 0 0 0-3.25-1zm26.83 24.16l-1.12 2.8h-6.45L164.82 202h6.45l11.54 32.62h-7.06l-.84-2.8zm2-5.94H173l-5-14.58zm47.72-12.52a14.46 14.46 0 0 1-.47 3.69 14 14 0 0 1-1.28 3.25 11.72 11.72 0 0 1-1.95 2.62 8.29 8.29 0 0 1-2.48 1.75l7 9.91h-7.85l-6-8.46h-4.23v8.46h-6.71v-32.76H199a12.69 12.69 0 0 1 4.76.79 10.33 10.33 0 0 1 3.45 2.29 13.46 13.46 0 0 1 1.24 1.59 12.13 12.13 0 0 1 1.1 2 15.19 15.19 0 0 1 .77 2.34 10.51 10.51 0 0 1 .25 2.53zm-6.78.33a5.32 5.32 0 0 0-5.63-5.66h-4.79v12.15h5.07a4.34 4.34 0 0 0 2.25-.58 5.84 5.84 0 0 0 1.69-1.52 6.73 6.73 0 0 0 1.06-2.08 7.83 7.83 0 0 0 .35-2.31zm26.92 20.89a16 16 0 0 1-6.36-1.28 16.34 16.34 0 0 1-8.72-8.72 16.48 16.48 0 0 1 0-12.76 16.78 16.78 0 0 1 3.51-5.23 16.29 16.29 0 0 1 5.21-3.53 16.34 16.34 0 0 1 12.06-.26 18.76 18.76 0 0 1 5.1 2.94l-4.81 5.66a8 8 0 0 0-2.78-1.52 11.05 11.05 0 0 0-3.2-.44 8.26 8.26 0 0 0-3.36.7 9 9 0 0 0-4.67 4.67 8.35 8.35 0 0 0-.7 3.41 8.24 8.24 0 0 0 .7 3.37 9 9 0 0 0 4.67 4.67 8.26 8.26 0 0 0 3.36.7 9.45 9.45 0 0 0 6-2l4.81 5.61a15.2 15.2 0 0 1-5 2.94 16.91 16.91 0 0 1-5.82 1.07zm36.08-.09h-20.94v-32.67h20.66V208h-14v10.61h14.25v6.12h-14.22v3.6h14.25zm11.59-6.13h13.18v6.22h-20v-32.81h6.78zm32.29-26.54a16.07 16.07 0 0 1 6.4 1.28 16.36 16.36 0 0 1 8.72 8.72 16.6 16.6 0 0 1 0 12.8 16.36 16.36 0 0 1-8.72 8.72 16.6 16.6 0 0 1-12.81 0 16.36 16.36 0 0 1-8.72-8.72 16.57 16.57 0 0 1 0-12.8 16.36 16.36 0 0 1 8.72-8.72 16.06 16.06 0 0 1 6.41-1.28zm0 26.26a9.51 9.51 0 0 0 3.83-.79 10.25 10.25 0 0 0 3.18-2.15 10.4 10.4 0 0 0 2.15-3.13 9.18 9.18 0 0 0 .79-3.79 10.06 10.06 0 0 0-.79-4 10.42 10.42 0 0 0-2.15-3.25 10.08 10.08 0 0 0-3.18-2.17 9.51 9.51 0 0 0-3.83-.79 9.73 9.73 0 0 0-3.93.79 9.5 9.5 0 0 0-3.13 2.17 10.11 10.11 0 0 0-2.06 3.25 10.57 10.57 0 0 0-.75 4 9.64 9.64 0 0 0 .75 3.79 10.06 10.06 0 0 0 2.06 3.13 9.76 9.76 0 0 0 7.06 2.94zm49.5-26.26v32.76H354l-15.61-20.75v20.75h-7.06v-32.76h6.45l9.25 12 6.17 8.13v-20.13zm11.35 30l-1.12 2.8H364L375.49 202h6.45l11.54 32.62h-7.06l-.84-2.8zm2-5.94h10.09l-5-14.58zM46.47 180.68a15 15 0 0 0 7.59-4.93 7.58 7.58 0 0 0 1.16-7.33 9.15 9.15 0 0 0-1.63-3 8.29 8.29 0 0 0-3.18-2.22 21.36 21.36 0 0 0-5.65-1.34q-3.54-.44-8.94-.56a110.83 110.83 0 0 1-12.31-1.35 35.42 35.42 0 0 1-9.75-3 22.51 22.51 0 0 1-7.29-5.73 27.7 27.7 0 0 1-4.94-9.39 28.55 28.55 0 0 1-1.44-11.32 24.14 24.14 0 0 1 3.18-10.23 28.58 28.58 0 0 1 7.48-8.37 37.84 37.84 0 0 1 11.42-5.82 51.21 51.21 0 0 1 15.77-2.46 34.88 34.88 0 0 1 16.12 3.94l-5.56 17.15a55.87 55.87 0 0 0-11-2.56 24.66 24.66 0 0 0-10.72 1.1 11.83 11.83 0 0 0-6.56 4.53 7.17 7.17 0 0 0-.87 6.44 8 8 0 0 0 1.81 3.1 9.39 9.39 0 0 0 3.6 2.16 31.58 31.58 0 0 0 6.19 1.46 94.85 94.85 0 0 0 9.68.83 75.4 75.4 0 0 1 11.7 1.47 34.21 34.21 0 0 1 9.27 3.35 23.66 23.66 0 0 1 6.92 5.71 26.43 26.43 0 0 1 4.55 8.69 28.45 28.45 0 0 1 1.4 12.07 25.16 25.16 0 0 1-3.53 10.49 29.59 29.59 0 0 1-7.78 8.33A38.84 38.84 0 0 1 52 197.56a52.45 52.45 0 0 1-18.21 2.53 49.37 49.37 0 0 1-19.16-4.83L20.85 178a57.21 57.21 0 0 0 12.23 3.76 26.73 26.73 0 0 0 13.39-1.08zm96.35-100.9L146.28 99l6.8 37.79a49.41 49.41 0 0 1 .42 17.12 31.72 31.72 0 0 1-5.21 13 30.44 30.44 0 0 1-10.12 9 45.5 45.5 0 0 1-14.35 5 43.45 43.45 0 0 1-14.77.28 30 30 0 0 1-12.43-5 32.11 32.11 0 0 1-9.36-10.41 49.28 49.28 0 0 1-5.57-16.2l-6.8-37.79-3.45-19.17 19.23-3.46 3.46 19.23.29 1.63 6.63 36.84q1.76 9.75 7.16 13.74t13.12 2.6q7.32-1.32 10.85-6.92t1.82-15.34l-7-38.47-3.46-19.23zm104.72-7.89l3.95 76.84 1 19.93-19.11 1-1-19.93-.08-1.51-2.09-40.69L215.92 135l-15.67.81-16.17-25.08 2 39.86.08 1.51 1 19.93-19.11 1-1-19.93-3.95-76.83 20.76-1.07 23.48 38.48L226.79 73zm108.95 6.5l-5.69 76.73-1.48 19.88-19.08-1.41 1.48-19.9.11-1.51 3-40.63-17.6 25.45-15.65-1.16L288.67 109l-3 39.8-.11 1.51-1.48 19.9-19.08-1.45 1.48-19.9 5.69-76.73 20.73 1.54 18.48 41.12 24.35-37.94zm64.58 110.38L360.6 176.7l18.84-94.34 59.66 11.91-3.58 18-40.36-8.06L389 134.8l41.21 8.2-3.53 17.68-41.17-8.22-2.08 10.39 41.17 8.22zm98.05-32.86a42.83 42.83 0 0 1-4.91 9.8 41.34 41.34 0 0 1-6.73 7.77 34.62 34.62 0 0 1-8 5.36 24.42 24.42 0 0 1-8.61 2.43l9.78 34.39-21.79-7.66-8.27-29.33-11.74-4.14-8.28 23.47-18.82-6.64 32.1-91 34.33 12.11a37.3 37.3 0 0 1 12.43 6.87 30.35 30.35 0 0 1 7.34 9.74 39 39 0 0 1 1.87 5.62 35.65 35.65 0 0 1 1.05 6.72 45 45 0 0 1-.15 7.24 30.9 30.9 0 0 1-1.6 7.25zM500 150.18q2.52-7.14-.27-12.94t-9.85-8.24l-13.3-4.69-11.9 33.69 14.08 5a12.74 12.74 0 0 0 6.83.59 17.08 17.08 0 0 0 6.18-2.56 19.73 19.73 0 0 0 5-4.74 23.08 23.08 0 0 0 3.23-6.11zM174.72 25.28a24.71 24.71 0 0 1-7.1 17.57 25.48 25.48 0 0 1-17.53 7.5h-12.93V.29h12.5a24.53 24.53 0 0 1 9.78 2 25 25 0 0 1 13.32 13.32 24.35 24.35 0 0 1 1.96 9.67zm-27.2 15.57h2.57a15.68 15.68 0 0 0 5.82-1.39 16.26 16.26 0 0 0 4.82-3.32 15.64 15.64 0 0 0 3.27-4.87 14.86 14.86 0 0 0 1.21-6 15.37 15.37 0 0 0-1.21-6.06 15.18 15.18 0 0 0-3.32-4.93 15.88 15.88 0 0 0-5-3.28 15.37 15.37 0 0 0-6.07-1.21h-2.14zm70.04-23.07a22.2 22.2 0 0 1-.71 5.64 21.41 21.41 0 0 1-2 5 17.93 17.93 0 0 1-3 4 12.68 12.68 0 0 1-3.8 2.68l10.8 15.1h-12l-9.11-12.92h-6.46V50.2h-10.35V.14h18.88a19.36 19.36 0 0 1 7.27 1.21 15.76 15.76 0 0 1 5.27 3.5 20.36 20.36 0 0 1 1.89 2.43 18.7 18.7 0 0 1 1.68 3.11A23.37 23.37 0 0 1 217.1 14a16 16 0 0 1 .46 3.78zm-10.35.5a8.48 8.48 0 0 0-2.37-6.28 8.46 8.46 0 0 0-6.24-2.36h-7.32V28.2H199a6.61 6.61 0 0 0 3.44-.89 8.84 8.84 0 0 0 2.62-2.31 10.26 10.26 0 0 0 1.62-3.18 12 12 0 0 0 .53-3.54zM262.76.36v30.06a25.62 25.62 0 0 1-1.36 8.78 16.45 16.45 0 0 1-3.86 6.18 15.79 15.79 0 0 1-6 3.68 23.6 23.6 0 0 1-7.78 1.21 22.51 22.51 0 0 1-7.57-1.21 15.54 15.54 0 0 1-5.89-3.68 16.66 16.66 0 0 1-3.82-6.18 25.58 25.58 0 0 1-1.36-8.78V.36h10.14v30.42q0 5.14 2.39 7.68a8.46 8.46 0 0 0 6.47 2.54 8 8 0 0 0 6.18-2.53q2.32-2.53 2.32-7.68V.36zm42.05 18.21a19.34 19.34 0 0 1-1.46 7.78 17 17 0 0 1-4 5.71 17.74 17.74 0 0 1-6 3.64 24.27 24.27 0 0 1-7.57 1.43h-5.57v13h-10.38V0h16.42a20.13 20.13 0 0 1 7.64 1.39 17.2 17.2 0 0 1 5.86 3.86 17.09 17.09 0 0 1 3.75 5.86 20.41 20.41 0 0 1 1.31 7.46zm-10.35.43a10.36 10.36 0 0 0-2.21-6.92 8 8 0 0 0-6.5-2.62h-5.57v18.17h5.57a9.56 9.56 0 0 0 3.75-.63 8.13 8.13 0 0 0 2.71-1.83 7.61 7.61 0 0 0 1.68-2.72 9.83 9.83 0 0 0 .57-3.45zm20.21 27L313 50.27h-9.9L320.74.43h9.85l17.64 49.84h-10.78L336.16 46zm3.07-9.07h15.42l-7.71-22.28zm46.48 3.77h20.06v9.35H354V.21h10.21zM36.87 21.31a20.86 20.86 0 0 0 12.81-4.38 20.92 20.92 0 0 0 25.61 0 20.86 20.86 0 0 0 12.8 4.38 20.88 20.88 0 0 0 12.81-4.38 20.87 20.87 0 0 0 12.81 4.38 4.22 4.22 0 0 0 0-8.43 12.47 12.47 0 0 1-9.58-4.47 4.22 4.22 0 0 0-6.46 0 12.5 12.5 0 0 1-9.59 4.47 12.46 12.46 0 0 1-9.56-4.48 4.21 4.21 0 0 0-3.22-1.5 4.21 4.21 0 0 0-3.22 1.5 12.49 12.49 0 0 1-9.59 4.47A12.5 12.5 0 0 1 52.9 8.4a4.21 4.21 0 0 0-3.23-1.5 4.07 4.07 0 0 0-3.23 1.51 12.48 12.48 0 0 1-9.58 4.47 4.22 4.22 0 0 0 0 8.43zm0 20.12a20.86 20.86 0 0 0 12.81-4.38 20.92 20.92 0 0 0 25.61 0 20.92 20.92 0 0 0 25.62 0 20.87 20.87 0 0 0 12.81 4.38 4.22 4.22 0 0 0 0-8.43 12.47 12.47 0 0 1-9.58-4.47 4.22 4.22 0 0 0-6.46 0 12.49 12.49 0 0 1-19.16 0A4.21 4.21 0 0 0 75.3 27a4.21 4.21 0 0 0-3.22 1.5 12.5 12.5 0 0 1-19.17 0 4.21 4.21 0 0 0-3.23-1.5 4.07 4.07 0 0 0-3.23 1.51A12.48 12.48 0 0 1 36.87 33a4.22 4.22 0 0 0 0 8.43zm370.41-20.12a20.86 20.86 0 0 0 12.81-4.38 20.92 20.92 0 0 0 25.61 0 20.86 20.86 0 0 0 12.8 4.38 20.88 20.88 0 0 0 12.81-4.38 20.87 20.87 0 0 0 12.81 4.38 4.22 4.22 0 0 0 0-8.43 12.47 12.47 0 0 1-9.58-4.47 4.22 4.22 0 0 0-6.46 0 12.5 12.5 0 0 1-9.59 4.47 12.46 12.46 0 0 1-9.57-4.47 4.21 4.21 0 0 0-3.23-1.5 4.21 4.21 0 0 0-3.22 1.5 12.49 12.49 0 0 1-9.59 4.47 12.5 12.5 0 0 1-9.58-4.47 4.21 4.21 0 0 0-3.23-1.5 4.07 4.07 0 0 0-3.23 1.51 12.48 12.48 0 0 1-9.58 4.47 4.22 4.22 0 0 0 0 8.43zm0 20.12a20.86 20.86 0 0 0 12.81-4.38 20.92 20.92 0 0 0 25.61 0 20.92 20.92 0 0 0 25.62 0 20.87 20.87 0 0 0 12.81 4.38 4.22 4.22 0 0 0 0-8.43 12.47 12.47 0 0 1-9.58-4.47 4.22 4.22 0 0 0-6.46 0 12.49 12.49 0 0 1-19.16 0 4.21 4.21 0 0 0-3.23-1.5 4.21 4.21 0 0 0-3.22 1.5 12.5 12.5 0 0 1-19.17 0 4.21 4.21 0 0 0-3.23-1.5 4.07 4.07 0 0 0-3.23 1.51 12.48 12.48 0 0 1-9.57 4.46 4.22 4.22 0 0 0 0 8.43zm0 0" class="cls-1"/>
  <path d="M154.54 229.22a8.68 8.68 0 0 1-.84 3.92 7.67 7.67 0 0 1-2.38 2.81 10.92 10.92 0 0 1-3.72 1.68 19.35 19.35 0 0 1-4.84.56h-12.29v-19.58h5.33l-5.33-7.61v-5.61h12.06a13.91 13.91 0 0 1 4.84.77 11.34 11.34 0 0 1 3.53 2 11.2 11.2 0 0 1 1.68 2.59 7.19 7.19 0 0 1 .61 3v.33a7.19 7.19 0 0 1-.4 2.45 7.77 7.77 0 0 1-1 2 7.63 7.63 0 0 1-1.43 1.5 9.32 9.32 0 0 1-1.64 1.05 14.49 14.49 0 0 1 2.45 1.19 7.4 7.4 0 0 1 1.85 1.59 6.5 6.5 0 0 1 1.15 2.15 9.62 9.62 0 0 1 .4 2.92zM136.92 232h6.17a6.19 6.19 0 0 0 3.43-.87 3.06 3.06 0 0 0 1.33-2.78V228a3.21 3.21 0 0 0-1.26-2.64 6.09 6.09 0 0 0-3.83-1h-5.84zm.23-20.66l5.38 7.52q3.88-.37 3.88-3.65V215a3.32 3.32 0 0 0-1.15-2.69 4.93 4.93 0 0 0-3.25-1zM164 235.48l-1.12 2.8h-6.45L168 205.66h6.45l11.54 32.62h-7.06l-.84-2.8zm2-5.94h10.09L171 215zM213.71 217a14.46 14.46 0 0 1-.47 3.69A14 14 0 0 1 212 224a11.72 11.72 0 0 1-1.95 2.62 8.29 8.29 0 0 1-2.48 1.75l7 9.91h-7.87l-6-8.46h-4.23v8.46h-6.78v-32.8h12.36a12.69 12.69 0 0 1 4.76.79 10.33 10.33 0 0 1 3.45 2.29 13.46 13.46 0 0 1 1.24 1.59 12.13 12.13 0 0 1 1.1 2 15.19 15.19 0 0 1 .77 2.34 10.51 10.51 0 0 1 .34 2.51zm-6.78.33a5.32 5.32 0 0 0-5.63-5.66h-4.79v12.15h5.07a4.34 4.34 0 0 0 2.25-.58 5.84 5.84 0 0 0 1.69-1.52 6.73 6.73 0 0 0 1.06-2.08 7.83 7.83 0 0 0 .35-2.29zm26.92 20.91a16 16 0 0 1-6.36-1.28 16.34 16.34 0 0 1-8.72-8.72 16.48 16.48 0 0 1 0-12.76 16.78 16.78 0 0 1 3.51-5.23 16.29 16.29 0 0 1 5.21-3.53 16.34 16.34 0 0 1 12.06-.26 18.76 18.76 0 0 1 5.1 2.94l-4.81 5.66a8 8 0 0 0-2.78-1.52 11.05 11.05 0 0 0-3.2-.44 8.26 8.26 0 0 0-3.36.7 9 9 0 0 0-4.67 4.67 8.35 8.35 0 0 0-.7 3.41 8.24 8.24 0 0 0 .7 3.37 9 9 0 0 0 4.67 4.67 8.26 8.26 0 0 0 3.36.7 9.45 9.45 0 0 0 6-2l4.81 5.61a15.2 15.2 0 0 1-5 2.94 16.91 16.91 0 0 1-5.82 1.07zm36.08-.1H249v-32.66h20.66v6.22h-14v10.6h14.25v6.12h-14.24V232h14.25zm11.59-6.14h13.18v6.22h-20v-32.79h6.78zm32.29-26.52a16.07 16.07 0 0 1 6.4 1.28 16.36 16.36 0 0 1 8.72 8.72 16.6 16.6 0 0 1 0 12.8 16.36 16.36 0 0 1-8.72 8.72 16.6 16.6 0 0 1-12.81 0 16.36 16.36 0 0 1-8.72-8.72 16.57 16.57 0 0 1 0-12.8 16.36 16.36 0 0 1 8.72-8.72 16.06 16.06 0 0 1 6.41-1.28zm0 26.26a9.51 9.51 0 0 0 3.83-.79 10.25 10.25 0 0 0 3.18-2.15 10.4 10.4 0 0 0 2.15-3.13 9.18 9.18 0 0 0 .79-3.79 10.06 10.06 0 0 0-.79-4 10.42 10.42 0 0 0-2.15-3.25 10.08 10.08 0 0 0-3.18-2.17 9.51 9.51 0 0 0-3.83-.79 9.73 9.73 0 0 0-3.93.79 9.5 9.5 0 0 0-3.13 2.17 10.11 10.11 0 0 0-2.06 3.25 10.57 10.57 0 0 0-.75 4 9.64 9.64 0 0 0 .75 3.79 10.06 10.06 0 0 0 2.06 3.13 9.76 9.76 0 0 0 7.06 2.94zm49.49-26.26v32.76h-6.12l-15.66-20.75v20.75h-7.06v-32.76h6.45l9.25 12 6.17 8.13v-20.13zm11.36 30l-1.12 2.8h-6.45l11.54-32.62h6.45l11.54 32.62h-7.06l-.84-2.8zm2-5.94h10.09l-5-14.58zM49.61 184.37a15 15 0 0 0 7.59-4.93 7.58 7.58 0 0 0 1.16-7.33 9.15 9.15 0 0 0-1.63-3 8.29 8.29 0 0 0-3.18-2.22 21.36 21.36 0 0 0-5.65-1.34q-3.54-.44-8.94-.56a110.83 110.83 0 0 1-12.31-1.35 35.42 35.42 0 0 1-9.75-3 22.51 22.51 0 0 1-7.29-5.73 27.7 27.7 0 0 1-4.94-9.39 28.55 28.55 0 0 1-1.45-11.32A24.14 24.14 0 0 1 6.41 124a28.58 28.58 0 0 1 7.48-8.37 37.84 37.84 0 0 1 11.42-5.82 51.21 51.21 0 0 1 15.77-2.46 34.88 34.88 0 0 1 16.12 3.94l-5.56 17.15a55.87 55.87 0 0 0-11-2.56A24.66 24.66 0 0 0 29.89 127a11.83 11.83 0 0 0-6.56 4.53 7.17 7.17 0 0 0-.87 6.44 8 8 0 0 0 1.81 3.1 9.39 9.39 0 0 0 3.6 2.16 31.58 31.58 0 0 0 6.19 1.46 94.85 94.85 0 0 0 9.68.83 75.4 75.4 0 0 1 11.7 1.47 34.21 34.21 0 0 1 9.27 3.35 23.66 23.66 0 0 1 6.92 5.66 26.43 26.43 0 0 1 4.58 8.72 28.45 28.45 0 0 1 1.4 12.07 25.16 25.16 0 0 1-3.53 10.49 29.59 29.59 0 0 1-7.78 8.33 38.84 38.84 0 0 1-11.18 5.67 52.45 52.45 0 0 1-18.21 2.53A49.37 49.37 0 0 1 17.74 199L24 181.72a57.21 57.21 0 0 0 12.23 3.76 26.73 26.73 0 0 0 13.38-1.11zM146 83.46l3.46 19.23 6.8 37.79a49.41 49.41 0 0 1 .42 17.12 31.72 31.72 0 0 1-5.21 13 30.44 30.44 0 0 1-10.12 9 45.5 45.5 0 0 1-14.35 5 43.45 43.45 0 0 1-14.77.28 30 30 0 0 1-12.43-5 32.11 32.11 0 0 1-9.36-10.41 49.28 49.28 0 0 1-5.57-16.2L78 115.54l-3.43-19.23 19.23-3.46 3.46 19.23.29 1.63 6.63 36.84q1.76 9.75 7.16 13.74t13.12 2.6q7.32-1.32 10.85-6.92t1.78-15.35l-6.92-38.47-3.46-19.23zm104.68-7.88l3.95 76.84 1 19.93-19.11 1-1-19.93-.08-1.51-2.09-40.69-14.3 27.47-15.67.81-16.17-25.1 2 39.86.08 1.51 1 19.93-19.11 1-1-19.93-3.95-76.83L187 78.85l23.48 38.48 19.41-40.69zm108.95 6.49l-5.69 76.73-1.48 19.9-19.08-1.41 1.48-19.9.11-1.51 3-40.63-17.62 25.47-15.65-1.16-12.91-26.9-3 39.8-.11 1.51-1.48 19.9-19.08-1.41 1.48-19.9 5.69-76.73 20.73 1.54 18.48 41.12 24.35-37.94zm64.58 110.39l-60.47-12.07L382.58 86l59.65 12-3.58 18-40.36-8.06-6.12 30.64 41.17 8.22-3.53 17.68-41.17-8.22-2.08 10.39 41.17 8.22zm98.05-32.86a42.83 42.83 0 0 1-4.91 9.8 41.34 41.34 0 0 1-6.73 7.77 34.62 34.62 0 0 1-8 5.36A24.42 24.42 0 0 1 494 185l9.78 34.39-21.78-7.73-8.27-29.33-11.73-4.15-8.29 23.49-18.82-6.67 32.1-91 34.33 12.11a37.3 37.3 0 0 1 12.43 6.89 30.35 30.35 0 0 1 7.34 9.74 39 39 0 0 1 1.91 5.66 35.65 35.65 0 0 1 1.05 6.72 45 45 0 0 1-.15 7.24 30.9 30.9 0 0 1-1.64 7.24zm-19.14-5.73q2.52-7.14-.27-12.94t-9.85-8.28L479.72 128l-11.91 33.7 14.08 5a12.74 12.74 0 0 0 6.83.59 17.08 17.08 0 0 0 6.18-2.56 19.73 19.73 0 0 0 5-4.74 23.08 23.08 0 0 0 3.22-6.12zM177.86 29a24.71 24.71 0 0 1-7.1 17.57A25.48 25.48 0 0 1 153.22 54H140.3V4h12.5a24.53 24.53 0 0 1 9.78 2 25 25 0 0 1 13.32 13.32 24.35 24.35 0 0 1 1.96 9.68zm-27.2 15.57h2.57a15.68 15.68 0 0 0 5.77-1.43 16.26 16.26 0 0 0 4.82-3.32 15.64 15.64 0 0 0 3.33-4.82 14.86 14.86 0 0 0 1.21-6 15.37 15.37 0 0 0-1.21-6.07 15.18 15.18 0 0 0-3.32-4.93 15.88 15.88 0 0 0-5-3.28 15.37 15.37 0 0 0-6.07-1.21h-2.14zm70.04-23.1a22.2 22.2 0 0 1-.71 5.64 21.41 21.41 0 0 1-2 5 17.93 17.93 0 0 1-3 4 12.68 12.68 0 0 1-3.8 2.68L222 53.88h-12L200.88 41h-6.46v12.88h-10.35V3.83H203A19.36 19.36 0 0 1 210.22 5a15.76 15.76 0 0 1 5.27 3.5 20.36 20.36 0 0 1 1.89 2.5 18.7 18.7 0 0 1 1.68 3.11 23.37 23.37 0 0 1 1.17 3.57 16 16 0 0 1 .47 3.79zm-10.35.5a8.12 8.12 0 0 0-8.61-8.64h-7.32v18.56h7.75a6.61 6.61 0 0 0 3.44-.89 8.84 8.84 0 0 0 2.58-2.32 10.26 10.26 0 0 0 1.62-3.18 12 12 0 0 0 .54-3.5zM265.9 4v30.11a25.62 25.62 0 0 1-1.36 8.78 16.45 16.45 0 0 1-3.86 6.18 15.79 15.79 0 0 1-6 3.68A23.6 23.6 0 0 1 246.9 54a22.51 22.51 0 0 1-7.57-1.21 15.54 15.54 0 0 1-5.89-3.68 16.66 16.66 0 0 1-3.82-6.18 25.58 25.58 0 0 1-1.36-8.78V4h10.14v30.46q0 5.14 2.39 7.68a8.46 8.46 0 0 0 6.46 2.53 8 8 0 0 0 6.18-2.53q2.32-2.53 2.32-7.68V4zM308 22.25a19.34 19.34 0 0 1-1.51 7.75 17 17 0 0 1-4 5.71 17.74 17.74 0 0 1-6 3.64 24.27 24.27 0 0 1-7.57 1.43h-5.57v13H273V3.69h16.42A20.13 20.13 0 0 1 297 5.08a16.79 16.79 0 0 1 9.6 9.71 20.41 20.41 0 0 1 1.4 7.46zm-10.35.47a10.36 10.36 0 0 0-2.21-6.92 8 8 0 0 0-6.5-2.62h-5.57v18.14h5.57a9.56 9.56 0 0 0 3.75-.68 8.13 8.13 0 0 0 2.71-1.83 7.61 7.61 0 0 0 1.6-2.72 9.83 9.83 0 0 0 .6-3.37zm20.16 26.95L316.09 54h-9.85l17.63-49.88h9.85L351.37 54h-10.79l-1.29-4.28zm3.07-9.07h15.42l-7.71-22.28zm46.48 3.79h20.06v9.35h-30.27V3.9h10.21zM40 25a20.86 20.86 0 0 0 12.81-4.38 20.92 20.92 0 0 0 25.61 0 20.92 20.92 0 0 0 25.62 0A20.87 20.87 0 0 0 116.86 25a4.22 4.22 0 0 0 0-8.43 12.47 12.47 0 0 1-9.58-4.47 4.22 4.22 0 0 0-6.46 0 12.49 12.49 0 0 1-19.16 0 4.21 4.21 0 0 0-3.23-1.5 4.21 4.21 0 0 0-3.22 1.5 12.5 12.5 0 0 1-19.17 0 4.21 4.21 0 0 0-3.23-1.5 4.07 4.07 0 0 0-3.23 1.51A12.48 12.48 0 0 1 40 16.56 4.22 4.22 0 0 0 40 25zm0 20.12a20.86 20.86 0 0 0 12.81-4.38 20.92 20.92 0 0 0 25.61 0 20.92 20.92 0 0 0 25.62 0 20.87 20.87 0 0 0 12.81 4.38 4.22 4.22 0 0 0 0-8.43 12.47 12.47 0 0 1-9.58-4.47 4.22 4.22 0 0 0-6.46 0 12.49 12.49 0 0 1-19.16 0 4.21 4.21 0 0 0-3.23-1.5 4.21 4.21 0 0 0-3.22 1.5 12.5 12.5 0 0 1-19.17 0 4.21 4.21 0 0 0-3.23-1.5 4.07 4.07 0 0 0-3.23 1.51A12.48 12.48 0 0 1 40 36.68a4.22 4.22 0 0 0 0 8.43zM410.42 25a20.86 20.86 0 0 0 12.81-4.38 20.92 20.92 0 0 0 25.61 0 20.92 20.92 0 0 0 25.62 0A20.87 20.87 0 0 0 487.27 25a4.22 4.22 0 0 0 0-8.43 12.47 12.47 0 0 1-9.58-4.47 4.22 4.22 0 0 0-6.46 0 12.49 12.49 0 0 1-19.16 0 4.21 4.21 0 0 0-3.23-1.5 4.21 4.21 0 0 0-3.22 1.5 12.5 12.5 0 0 1-19.17 0 4.21 4.21 0 0 0-3.23-1.5 4.07 4.07 0 0 0-3.22 1.5 12.48 12.48 0 0 1-9.58 4.47 4.22 4.22 0 0 0 0 8.43zm0 20.12a20.86 20.86 0 0 0 12.81-4.38 20.92 20.92 0 0 0 25.61 0 20.92 20.92 0 0 0 25.62 0 20.87 20.87 0 0 0 12.81 4.38 4.22 4.22 0 0 0 0-8.43 12.47 12.47 0 0 1-9.58-4.47 4.22 4.22 0 0 0-6.46 0 12.49 12.49 0 0 1-19.16 0 4.21 4.21 0 0 0-3.23-1.5 4.21 4.21 0 0 0-3.22 1.5 12.5 12.5 0 0 1-19.17 0 4.21 4.21 0 0 0-3.23-1.5 4.07 4.07 0 0 0-3.22 1.5 12.48 12.48 0 0 1-9.58 4.47 4.22 4.22 0 0 0 0 8.43zM221.92 260.2h83.16v1.84h-83.16zm0 31.28h83.16v1.84h-83.16zm10.87-8.27q2.23-2 3.83-3.43t2.7-2.5c.74-.7 1.33-1.28 1.77-1.76a10.58 10.58 0 0 0 1-1.22 3.46 3.46 0 0 0 .46-.88 2.6 2.6 0 0 0 .12-.76 2.23 2.23 0 0 0-.77-1.86 2.92 2.92 0 0 0-1.87-.61 3.36 3.36 0 0 0-2 .61 11.91 11.91 0 0 0-2 1.86l-3-2.32a14 14 0 0 1 1.48-1.73 8.19 8.19 0 0 1 1.6-1.23 6.81 6.81 0 0 1 1.86-.74 10 10 0 0 1 2.32-.25 8.29 8.29 0 0 1 2.7.42 6 6 0 0 1 2.08 1.19 5.34 5.34 0 0 1 1.33 1.87 6.06 6.06 0 0 1 .48 2.44 6.77 6.77 0 0 1-.33 2.18 7.3 7.3 0 0 1-1.26 2.15 26.54 26.54 0 0 1-2.56 2.68q-1.62 1.52-4.24 3.73H247v3.63h-14.21zm34.68-5.05a8.61 8.61 0 1 1-17.22 0v-3.31a8.41 8.41 0 0 1 .75-3.27 9.11 9.11 0 0 1 1.86-2.69 8.65 8.65 0 0 1 2.71-1.83 8.28 8.28 0 0 1 3.3-.67 8.17 8.17 0 0 1 3.28.67 8.7 8.7 0 0 1 2.7 1.83 9.11 9.11 0 0 1 1.86 2.69 8.43 8.43 0 0 1 .75 3.27zm-3.45-3a5.32 5.32 0 0 0-.41-2.09 5.52 5.52 0 0 0-1.1-1.68 5.05 5.05 0 0 0-5.62-1.13 5.2 5.2 0 0 0-1.66 1.13 5.39 5.39 0 0 0-1.12 1.68 5.32 5.32 0 0 0-.41 2.09v3a5 5 0 0 0 .41 2 5.26 5.26 0 0 0 2.77 2.77 5.07 5.07 0 0 0 4 0 5.06 5.06 0 0 0 1.64-1.12 5.39 5.39 0 0 0 1.1-1.65 5 5 0 0 0 .41-2zm6.75-4.34v-4.53h8.71v20.41h-4.36v-15.88zm12.01-.7v-3.86H294v3.34l-7 17h-3.86l7-16.52z" class="cls-2"/>

</svg>
